<?xml version="1.0" encoding="UTF-8"?>
<svg width="240" height="32" viewBox="0 0 240 32" fill="none" xmlns="http://www.w3.org/2000/svg" role="img" aria-label="Case Interview Practice Platform">
  <title>Case Interview Practice Platform Logo</title>
  <defs>
    <linearGradient id="logo-gradient" x1="0%" y1="0%" x2="100%" y2="0%">
      <stop offset="0%" style="stop-color:#0F172A"/>
      <stop offset="100%" style="stop-color:#1E293B"/>
    </linearGradient>
  </defs>
  <g fill="url(#logo-gradient)">
    <!-- Stylized "C" representing Case -->
    <path d="M24 8c-8.8 0-16 7.2-16 16h6c0-5.5 4.5-10 10-10s10 4.5 10 10h6c0-8.8-7.2-16-16-16z"/>
    <!-- Interview symbol - connecting nodes -->
    <path d="M60 16c-4.4 0-8 3.6-8 8s3.6 8 8 8 8-3.6 8-8-3.6-8-8-8zm0 12c-2.2 0-4-1.8-4-4s1.8-4 4-4 4 1.8 4 4-1.8 4-4 4z"/>
    <path d="M84 16c-4.4 0-8 3.6-8 8s3.6 8 8 8 8-3.6 8-8-3.6-8-8-8zm0 12c-2.2 0-4-1.8-4-4s1.8-4 4-4 4 1.8 4 4-1.8 4-4 4z"/>
    <path d="M72 20h12v4H72z"/>
    <!-- Practice symbol - ascending steps -->
    <path d="M108 28h8v-4h-8zm0-8h16v-4h-16zm0-8h24v-4h-24z"/>
    <!-- Platform text representation -->
    <path d="M156 8h4v24h-4zm8 0h20v4h-20zm0 10h16v4h-16zm0 10h20v4h-20z"/>
    <path d="M192 8h24v4h-10v20h-4V12h-10z"/>
    <path d="M224 8h12v4h-12z M230 8v24h-4V8z"/>
  </g>
</svg>